HIERARCHY
ROOT Hips
{
	OFFSET 0.000000 0.000000 0.000000 
	CHANNELS 6 Xposition Yposition Zposition Zrotation Yrotation Xrotation
	JOINT LeftUpLeg
	{
		OFFSET 1.363060 -1.794630 0.839290 
		CHANNELS 3 Zrotation Yrotation Xrotation
		JOINT LeftLeg
		{
			OFFSET 2.448110 -6.726130 0.000000 
			CHANNELS 3 Zrotation Yrotation Xrotation
			JOINT LeftFoot
			{
				OFFSET 2.562200 -7.039590 0.000000 
				CHANNELS 3 Zrotation Yrotation Xrotation
				JOINT LeftToeBase
				{
					OFFSET 0.157640 -0.433110 2.322550 
					CHANNELS 3 Zrotation Yrotation Xrotation
					End Site
					{
						OFFSET 0.000000 0.000000 0.000000 
					}
				}
			}
		}
	}
	JOINT RightUpLeg
	{
		OFFSET -1.305520 -1.794630 0.839290 
		CHANNELS 3 Zrotation Yrotation Xrotation
		JOINT RightLeg
		{
			OFFSET -2.542530 -6.985550 0.000000 
			CHANNELS 3 Zrotation Yrotation Xrotation
			JOINT RightFoot
			{
				OFFSET -2.568260 -7.056230 0.000000 
				CHANNELS 3 Zrotation Yrotation Xrotation
				JOINT RightToeBase
				{
					OFFSET -0.164730 -0.452590 2.363150 
					CHANNELS 3 Zrotation Yrotation Xrotation
					End Site
					{
						OFFSET 0.000000 0.000000 0.000000 
					}
				}
			}
		}
	}
	JOINT Spine
	{
		OFFSET 0.028270 2.035590 -0.193380 
		CHANNELS 3 Zrotation Yrotation Xrotation
		JOINT Spine1
		{
			OFFSET 0.056720 2.048850 -0.042750 
			CHANNELS 3 Zrotation Yrotation Xrotation
			JOINT Neck1
			{
				OFFSET -0.054170 1.746240 0.172020 
				CHANNELS 3 Zrotation Yrotation Xrotation
				JOINT Head
				{
					OFFSET 0.104070 1.761360 -0.123970 
					CHANNELS 3 Zrotation Yrotation Xrotation
					End Site
					{
						OFFSET 0.000000 0.000000 0.000000 
					}
				}
			}
			JOINT LeftArm
			{
				OFFSET 3.362410 1.200890 -0.311210 
				CHANNELS 3 Zrotation Yrotation Xrotation
				JOINT LeftForeArm
				{
					OFFSET 4.983000 -0.000000 -0.000000 
					CHANNELS 3 Zrotation Yrotation Xrotation
					JOINT LeftHand
					{
						OFFSET 3.483560 -0.000000 -0.000000 
						CHANNELS 3 Zrotation Yrotation Xrotation
						JOINT LeftHandIndex1
						{
							OFFSET 0.715260 -0.000000 -0.000000 
							CHANNELS 3 Zrotation Yrotation Xrotation
							End Site
							{
								OFFSET 0.000000 0.000000 0.000000 
							}
						}
					}
				}
			}
			JOINT RightArm
			{
				OFFSET -3.136600 1.374050 -0.404650 
				CHANNELS 3 Zrotation Yrotation Xrotation
				JOINT RightForeArm
				{
					OFFSET -5.241900 -0.000000 -0.000000 
					CHANNELS 3 Zrotation Yrotation Xrotation
					JOINT RightHand
					{
						OFFSET -3.444170 -0.000000 -0.000000 
						CHANNELS 3 Zrotation Yrotation Xrotation
						JOINT RightHandIndex1
						{
							OFFSET -0.622530 -0.000000 -0.000000 
							CHANNELS 3 Zrotation Yrotation Xrotation
							End Site
							{
								OFFSET 0.000000 0.000000 0.000000 
							}
						}
					}
				}
			}
		}
	}
}
MOTION
Frames: 13
Frame Time: 0.041667
0.052295 17.811108 -28.887010 -1.542102 0.599915 4.823205 -13.669184 -3.682818 -21.622896 2.271266 11.887339 36.836186 1.490248 -0.996721 3.506292 0.290100 -3.463800 -9.572800 15.176074 1.954946 -21.913481 -23.442355 -18.589369 98.408615 1.499483 -14.985711 20.899373 -0.188300 -2.795000 7.708600 -1.008463 -0.560594 4.438707 -1.235802 0.173812 -9.012427 6.657766 -0.943085 -2.174393 1.815700 -0.399500 -1.934000 -78.875169 -8.590210 45.523626 128.884296 -58.874530 -95.262290 0.242451 -1.498552 -28.012161 -7.125000 0.000000 0.000000 75.130848 -18.713521 43.790778 -65.383432 56.291772 -49.858155 2.630536 0.782633 5.787976 7.125000 0.000000 0.000000 
0.064821 17.773217 -28.396001 -1.571327 0.511358 5.134247 -13.755050 -3.432583 -20.335607 2.246955 11.781076 36.647484 1.325160 -0.437511 2.031430 0.582800 -4.888100 -13.589600 14.894193 2.785958 -24.758952 -23.867288 -18.712539 99.818291 1.515055 -14.390635 20.083117 -0.155500 -2.541000 7.003300 -0.888817 -0.782148 3.569449 -1.108494 0.044046 -10.342393 6.459944 -0.753495 -2.295674 1.758700 -0.326500 -2.273800 -78.915879 -9.478111 46.117285 129.632352 -58.513222 -95.779414 0.268985 -1.453214 -27.481042 -7.125000 0.000000 0.000000 74.997168 -21.654749 43.497294 -65.576773 56.578909 -50.151859 2.654046 0.804766 5.605493 7.125000 0.000000 0.000000 
0.074006 17.761735 -27.903216 -1.442973 0.568072 5.334316 -13.910786 -3.255953 -18.750672 2.057736 11.507721 35.936423 1.424068 -0.628221 1.639798 0.719400 -5.420100 -15.110800 14.426382 3.376024 -27.455968 -24.066343 -18.897563 100.469767 1.440467 -13.541095 19.690901 -0.131800 -2.340200 6.446700 -0.917701 -1.185727 3.453800 -1.018399 -0.194287 -10.338602 6.456004 -0.438862 -2.696406 1.788600 -0.188700 -2.609500 -78.729890 -11.284140 46.132561 130.476987 -58.058459 -96.376078 0.310051 -1.424180 -27.585673 -7.125000 0.000000 0.000000 75.076539 -23.098802 43.317644 -65.512855 56.674235 -50.170920 2.683203 0.748947 5.266274 7.125000 0.000000 0.000000 
0.082044 17.783029 -27.397176 -1.394527 0.821529 5.523501 -13.934589 -3.209874 -17.049888 1.867738 11.227482 35.172952 1.184901 0.037113 1.388152 0.865400 -5.931700 -16.586400 14.174145 3.854023 -29.935216 -24.065357 -19.106138 100.564053 1.387900 -12.486489 18.911214 -0.063300 -1.623500 4.466300 -0.957817 -1.692628 3.242594 -0.991309 -0.479804 -10.596913 6.599228 -0.145281 -2.727850 1.855500 -0.051000 -2.701100 -78.415063 -12.732244 46.101447 131.624792 -57.464198 -97.146713 0.321843 -1.379513 -27.938430 -7.125000 0.000000 0.000000 75.136297 -24.454774 43.289868 -65.461763 56.757022 -50.185062 2.697302 0.762017 5.015428 7.125000 0.000000 0.000000 
0.082252 17.816014 -26.885290 -1.339187 1.263202 5.758990 -13.836009 -3.358859 -15.255548 1.598486 10.858763 34.104100 0.873817 0.824472 1.996525 0.833900 -5.825400 -16.278700 14.034254 4.334258 -32.183087 -23.984174 -19.337568 100.019051 1.190609 -12.408632 20.564975 -0.560900 -4.797100 13.330800 -0.973043 -2.315258 3.019772 -0.892510 -0.815637 -10.861941 6.818754 0.184411 -2.565582 1.951300 0.111500 -2.670500 -78.144638 -14.102387 46.026809 132.925634 -56.779241 -98.010287 0.327096 -1.322613 -28.079532 -7.125000 0.000000 0.000000 75.088554 -25.585177 43.420429 -65.474769 56.839110 -50.242303 2.685429 0.901146 4.816628 7.125000 0.000000 0.000000 
0.082670 17.863612 -26.364740 -1.284261 1.368291 6.054159 -13.770215 -3.238025 -13.559873 1.279004 10.419375 32.788375 0.520789 1.713719 3.156836 0.919400 -6.109200 -17.101500 13.944745 5.236701 -34.157695 -23.641374 -19.585584 98.921751 1.077918 -11.647863 20.792072 -0.803700 -5.721500 15.978500 -0.870335 -2.816483 2.892583 -0.588328 -1.087769 -10.879720 6.963178 0.583551 -2.259074 2.017700 0.318900 -2.508100 -78.039298 -15.561671 45.829332 134.125631 -56.116813 -98.813727 0.345925 -1.260421 -28.202360 -7.125000 0.000000 0.000000 74.826684 -26.470140 43.619262 -65.810188 57.013344 -50.527540 2.668002 0.993196 4.715360 7.125000 0.000000 0.000000 
0.085175 17.933234 -25.835944 -0.956531 1.338712 6.292777 -14.048418 -2.974764 -11.804756 0.954232 9.947212 31.411328 0.289570 2.300165 4.071786 1.538300 -7.829600 -22.197800 13.513652 6.124174 -35.864157 -23.039483 -19.861302 97.272280 0.993313 -10.041726 19.751979 -0.466300 -4.379700 12.147500 -0.867716 -3.264305 2.821200 -0.274830 -1.328072 -10.828763 6.899979 0.838486 -1.948990 1.961100 0.451600 -2.315100 -77.823547 -16.689773 45.638859 135.378497 -55.405509 -99.648032 0.373500 -1.198734 -28.132826 -7.125000 0.000000 0.000000 74.626548 -27.336694 43.762575 -66.357491 57.270311 -51.022494 2.663736 1.014827 4.578371 7.125000 0.000000 0.000000 
0.078182 18.010372 -25.298589 -0.522894 1.894760 6.371759 -14.200007 -3.173342 -9.688991 0.597833 9.416838 29.876212 0.188285 2.567006 5.700954 2.076500 -9.023700 -25.869400 13.051885 6.373802 -37.213319 -22.250908 -20.140338 95.062398 0.923943 -8.551593 18.541954 -0.225300 -3.055400 8.433100 -0.878368 -3.992639 2.656068 0.071922 -1.690461 -10.951456 6.926561 1.126501 -1.918437 1.972100 0.587400 -2.388100 -77.544119 -17.068566 45.519620 136.761418 -54.611635 -100.546423 0.383279 -1.152471 -27.663678 -7.125000 0.000000 0.000000 74.269327 -28.386928 44.134592 -66.713629 57.501563 -51.403032 2.668104 1.042016 4.373834 7.125000 0.000000 0.000000 
0.062942 18.084900 -24.755597 -0.457875 2.538584 6.626293 -13.810651 -3.482552 -7.754907 0.219627 8.850648 28.210616 0.267595 2.495438 8.405779 2.305000 -9.474400 -27.290900 13.111446 6.670267 -38.548128 -21.329420 -20.374001 92.403411 0.810013 -7.447834 18.213146 -0.220000 -3.019600 8.333400 -0.715670 -4.645845 2.528410 0.436458 -2.037534 -10.862327 7.089586 1.403140 -1.559472 2.049500 0.735000 -2.244200 -77.367517 -17.725104 45.475619 137.915750 -53.909250 -101.300129 0.397165 -1.109579 -27.365415 -7.125000 0.000000 0.000000 73.889616 -29.252724 44.370373 -67.008032 57.696470 -51.701828 2.676586 1.022895 4.224141 7.125000 0.000000 0.000000 
0.047702 18.182079 -24.198097 -0.680776 2.520165 7.047395 -13.210312 -3.313994 -6.294620 -0.161703 8.262737 26.539411 0.657914 1.767242 11.781502 2.094900 -9.061000 -25.986400 13.467702 7.670727 -39.647260 -20.236168 -20.522120 89.214411 0.695591 -6.717975 18.494575 -0.337700 -3.734600 10.331300 -0.725473 -4.729076 2.860908 0.357951 -2.174732 -10.057152 6.956697 1.281827 -0.867366 1.869000 0.695600 -1.654400 -76.812503 -19.567562 45.721711 138.763561 -53.312367 -101.885650 0.445331 -1.082487 -27.361225 -7.125000 0.000000 0.000000 74.595047 -29.294330 43.694203 -67.254683 57.746255 -51.921260 2.678169 1.026717 4.207352 7.125000 0.000000 0.000000 
0.030271 18.281972 -23.630784 -0.798568 2.499619 7.493001 -12.663711 -3.197185 -4.912928 -0.486239 7.693450 24.906086 0.736865 2.018631 15.206500 2.082000 -9.034800 -25.904300 13.683440 8.627975 -40.587918 -18.985578 -20.603172 85.674904 0.671590 -6.007903 17.721936 -0.243300 -3.174000 8.763600 0.178254 -5.731612 1.708618 1.713978 -2.590160 -10.915105 7.117389 2.332062 -1.091699 2.181100 1.207500 -2.360400 -77.370280 -17.445631 44.660550 140.409731 -52.355844 -102.914407 0.497276 -1.016879 -26.916305 -7.125000 0.000000 0.000000 71.317738 -31.415800 46.542667 -67.804165 58.292831 -52.519348 2.662544 1.106491 3.780388 7.125000 0.000000 0.000000 
0.012421 18.379568 -23.061697 -0.807679 2.796172 7.830222 -12.116548 -3.394886 -3.373989 -0.794271 7.122948 23.189183 0.723895 2.774656 18.794049 2.256800 -9.381700 -26.996900 13.780398 9.205010 -41.224009 -17.576049 -20.591541 81.805914 0.689695 -5.177086 15.811347 -0.015700 -0.809500 2.224900 0.153786 -6.046821 2.088562 1.659584 -2.847609 -10.084473 7.091950 2.200802 -0.010260 2.103700 1.188400 -1.515200 -76.904630 -18.996433 44.781388 141.257995 -51.736801 -103.468471 0.498724 -0.965463 -26.529698 -7.125000 0.000000 0.000000 71.847331 -31.122802 45.953207 -68.094819 58.349888 -52.819965 2.664348 1.146158 3.421340 7.125000 0.000000 0.000000 
0.002818 18.472990 -22.494489 -0.812060 3.131770 7.999852 -11.545787 -3.665242 -1.759491 -1.085091 6.540044 21.385387 0.783914 3.720481 22.839656 2.323900 -9.510400 -27.405300 13.841607 9.575901 -41.557020 -16.069176 -20.465438 77.590849 0.688788 -4.731843 14.652901 -0.015900 0.813500 -2.235800 0.201173 -6.381080 2.417670 1.678114 -3.100538 -9.458027 7.045322 2.012965 0.960838 2.052900 1.140200 -0.789400 -76.517307 -20.243742 44.903747 142.016886 -51.172972 -103.960220 0.496576 -0.916182 -26.454958 -7.125000 0.000000 0.000000 72.119630 -30.917580 45.507056 -68.200241 58.360171 -52.938025 2.670118 1.147944 3.218779 7.125000 0.000000 0.000000 
